<svg width="28" height="20" viewBox="0 0 28 20" fill="none" xmlns="http://www.w3.org/2000/svg">
<path d="M0.40918 8.35938L0.40625 8.34473C0.406032 8.34148 0.405542 8.33757 0.405273 8.33301C0.404034 8.31194 0.402508 8.27941 0.401367 8.23633C0.399086 8.15001 0.399131 8.0227 0.405273 7.8623C0.417598 7.54092 0.456913 7.08789 0.564453 6.5625C0.779881 5.51015 1.2647 4.18141 2.33398 3.02148C3.91809 1.30417 6.34054 0.400405 9.60938 0.400391H10.4092V3.05371L9.76562 3.18359C8.05358 3.52706 6.78323 4.21994 6.09082 5.30957V5.31055C5.67696 5.96517 5.54359 6.64879 5.51465 7.17676L5.49121 7.59863H10.8076C11.0197 7.59863 11.224 7.68301 11.374 7.83301C11.5239 7.9829 11.6083 8.18648 11.6084 8.39844V16.7979C11.6084 17.9003 10.7108 18.7978 9.6084 18.7979H1.20898C0.997001 18.7978 0.793463 18.7134 0.643555 18.5635C0.493656 18.4136 0.409293 18.21 0.40918 17.998V8.35938Z" stroke="#1FBFFF" stroke-opacity="0.35" stroke-width="0.8"/>
<path d="M15.4171 8.35938L15.4142 8.34473C15.414 8.34148 15.4135 8.33757 15.4132 8.33301C15.412 8.31194 15.4104 8.27941 15.4093 8.23633C15.407 8.15001 15.4071 8.0227 15.4132 7.8623C15.4255 7.54092 15.4648 7.08789 15.5724 6.5625C15.7878 5.51015 16.2726 4.18141 17.3419 3.02148C18.926 1.30417 21.3485 0.400405 24.6173 0.400391H25.4171V3.05371L24.7736 3.18359C23.0615 3.52706 21.7912 4.21994 21.0988 5.30957V5.31055C20.6849 5.96517 20.5515 6.64879 20.5226 7.17676L20.4991 7.59863H25.8156C26.0277 7.59863 26.232 7.68301 26.382 7.83301C26.5318 7.9829 26.6162 8.18648 26.6163 8.39844V16.7979C26.6163 17.9003 25.7188 18.7978 24.6163 18.7979H16.2169C16.0049 18.7978 15.8014 18.7134 15.6515 18.5635C15.5016 18.4136 15.4172 18.21 15.4171 17.998V8.35938Z" stroke="#1FBFFF" stroke-opacity="0.35" stroke-width="0.8"/>
</svg>
