<svg width="90" height="64" viewBox="0 0 90 64" fill="none" xmlns="http://www.w3.org/2000/svg">
<path d="M0.522461 27.9023L0.526367 27.9189C0.524812 27.8997 0.521889 27.8692 0.519531 27.8291C0.514838 27.7492 0.509881 27.6317 0.505859 27.4795C0.497807 27.1745 0.495367 26.7319 0.516602 26.1777C0.559097 25.069 0.695641 23.5142 1.06445 21.7109C1.77949 18.215 3.36487 13.8028 6.82129 9.88477L7.16211 9.50684C12.4742 3.74341 20.4549 0.693769 30.9834 0.508789L32.0107 0.5H35.5068V10.8662L32.6953 11.4297C27.1065 12.5516 23.1287 14.7836 20.9922 18.1484V18.1494C19.7108 20.1779 19.2922 22.3077 19.2012 23.9727C19.1937 24.1098 19.2425 24.244 19.3369 24.3438C19.4313 24.4435 19.5628 24.5 19.7002 24.5H36.0029C36.9302 24.5 37.8198 24.8691 38.4756 25.5254C39.1313 26.1817 39.5 27.0717 39.5 28V56C39.5 60.1362 36.1378 63.5 32.0059 63.5H4.02832C3.10111 63.4999 2.21142 63.1309 1.55566 62.4746C0.900089 61.8183 0.53125 60.9282 0.53125 60V28C0.53125 27.9672 0.528856 27.9345 0.522461 27.9023Z" stroke="#1FBFFF" stroke-opacity="0.35" stroke-linejoin="round"/>
<path d="M50.5225 27.9023L50.5264 27.9189C50.5248 27.8997 50.5219 27.8692 50.5195 27.8291C50.5148 27.7492 50.5099 27.6317 50.5059 27.4795C50.4978 27.1745 50.4954 26.7319 50.5166 26.1777C50.5591 25.069 50.6956 23.5142 51.0645 21.7109C51.7795 18.215 53.3649 13.8028 56.8213 9.88477L57.1621 9.50684C62.4742 3.74341 70.4549 0.693769 80.9834 0.508789L82.0107 0.5H85.5068V10.8662L82.6953 11.4297C77.1065 12.5516 73.1287 14.7836 70.9922 18.1484V18.1494C69.7108 20.1779 69.2922 22.3077 69.2012 23.9727C69.1937 24.1098 69.2425 24.244 69.3369 24.3438C69.4313 24.4435 69.5628 24.5 69.7002 24.5H86.0029C86.9302 24.5 87.8198 24.8691 88.4756 25.5254C89.1313 26.1817 89.5 27.0717 89.5 28V56C89.5 60.1362 86.1378 63.5 82.0059 63.5H54.0283C53.1011 63.4999 52.2114 63.1309 51.5557 62.4746C50.9001 61.8183 50.5312 60.9282 50.5312 60V28C50.5312 27.9672 50.5289 27.9345 50.5225 27.9023Z" stroke="#FD853A" stroke-linejoin="round"/>
</svg>
