<svg width="371" height="346" viewBox="0 0 371 346" fill="none" xmlns="http://www.w3.org/2000/svg">
<rect x="80.5001" y="34.5" width="249" height="249" rx="124.5" stroke="#1FBFFF" stroke-opacity="0.29" stroke-dasharray="4 4"/>
<rect x="38.5" y="74.5" width="249" height="249" rx="124.5" stroke="#1FBFFF" stroke-opacity="0.25" stroke-dasharray="4 4"/>
<rect x="13.5" y="11.5" width="249" height="249" rx="124.5" stroke="#1FBFFF" stroke-opacity="0.22"/>
<g opacity="0.9" clip-path="url(#clip0_4_218)">
<path d="M114.313 0.375H133.688C136.625 0.375 139 2.74992 139 5.68758V24.3124C139 27.2501 136.625 29.625 133.688 29.625H114.313C111.375 29.625 109 27.2501 109 24.3124V5.68758C109 2.74992 111.375 0.375 114.313 0.375Z" fill="#470137"/>
<path d="M124.775 8.06251L121.025 14.25L125.025 20.8125C125.05 20.8624 125.063 20.9126 125.05 20.9625C125.038 21.0124 124.988 20.9749 124.913 20.9876H122.05C121.85 20.9876 121.713 20.9749 121.625 20.85C121.363 20.325 121.088 19.8124 120.825 19.2874C120.563 18.7751 120.275 18.2501 119.975 17.7124C119.675 17.1748 119.375 16.6376 119.075 16.0875H119.05C118.788 16.6249 118.5 17.1626 118.213 17.7C117.927 18.2321 117.644 18.7655 117.363 19.3001C117.075 19.8251 116.788 20.3625 116.5 20.8751C116.45 21 116.35 21.0124 116.213 21.0124H113.463C113.413 21.0124 113.375 21.0375 113.375 20.9749C113.37 20.9516 113.369 20.9273 113.373 20.9036C113.378 20.88 113.387 20.8575 113.4 20.8376L117.288 14.4626L113.5 8.05008C113.463 7.99993 113.45 7.95001 113.475 7.92493C113.5 7.88743 113.55 7.87501 113.6 7.87501H116.438C116.5 7.87501 116.563 7.88743 116.613 7.90008C116.663 7.92493 116.7 7.96243 116.738 8.01258C116.975 8.55001 117.25 9.08743 117.538 9.62509C117.838 10.1625 118.125 10.6875 118.438 11.2125C118.738 11.7375 119.013 12.2625 119.275 12.7999H119.3C119.563 12.2501 119.838 11.7124 120.113 11.1874C120.388 10.6624 120.675 10.1374 120.963 9.61243C121.25 9.08743 121.525 8.55001 121.8 8.03743C121.813 7.98751 121.838 7.93758 121.875 7.91251C121.925 7.88743 121.975 7.87501 122.038 7.88743H124.675C124.69 7.88408 124.705 7.8837 124.72 7.8863C124.735 7.8889 124.749 7.89444 124.762 7.90258C124.775 7.91073 124.786 7.92134 124.795 7.93378C124.803 7.94623 124.81 7.96026 124.813 7.97508C124.825 7.98751 124.8 8.03743 124.775 8.06251ZM130.55 21.2501C129.625 21.2625 128.7 21.075 127.863 20.6876C127.075 20.325 126.425 19.725 125.975 18.9874C125.513 18.225 125.288 17.2751 125.288 16.1374C125.275 15.2126 125.513 14.2999 125.975 13.5C126.45 12.6874 127.138 12.0124 127.963 11.5624C128.838 11.0749 129.888 10.8375 131.125 10.8375C131.188 10.8375 131.275 10.8375 131.388 10.8499C131.5 10.8626 131.625 10.8626 131.775 10.875V6.92509C131.775 6.83743 131.813 6.78751 131.9 6.78751H134.438C134.5 6.77508 134.55 6.82501 134.563 6.87493V18.7999C134.563 19.0249 134.575 19.275 134.588 19.5499C134.613 19.8124 134.625 20.0625 134.638 20.2751C134.638 20.3625 134.6 20.4375 134.513 20.475C133.858 20.7502 133.175 20.9515 132.475 21.075C131.838 21.1875 131.2 21.2501 130.55 21.2501ZM131.775 18.75V13.2499C131.663 13.2251 131.55 13.2 131.438 13.1876C131.301 13.1728 131.163 13.1645 131.025 13.1625C130.538 13.1625 130.05 13.2626 129.613 13.4876C129.186 13.7004 128.82 14.0187 128.55 14.4124C128.275 14.8125 128.138 15.3499 128.138 16.0001C128.127 16.4388 128.199 16.8755 128.35 17.2875C128.475 17.625 128.663 17.925 128.913 18.1751C129.154 18.4052 129.445 18.5763 129.763 18.675C130.1 18.7875 130.45 18.8374 130.8 18.8374C130.988 18.8374 131.163 18.825 131.325 18.8126C131.488 18.825 131.625 18.7999 131.775 18.75Z" fill="#FF61F6"/>
</g>
<rect x="109.5" y="82.5" width="249" height="249" rx="124.5" stroke="#1FBFFF" stroke-opacity="0.26"/>
<g opacity="0.9" clip-path="url(#clip1_4_218)">
<path d="M238.611 320.325H255.409C257.949 320.325 260.02 322.377 260.02 324.936V341.084C260.02 343.623 257.969 345.695 255.409 345.695H238.611C236.052 345.675 234 343.623 234 341.064V324.936C234 322.377 236.052 320.325 238.611 320.325Z" fill="#330000"/>
<path d="M246.574 335.498H242.531L241.719 338.038C241.699 338.139 241.617 338.2 241.516 338.18H239.484C239.363 338.18 239.342 338.119 239.363 337.977L242.856 327.942C242.897 327.841 242.917 327.719 242.958 327.577C242.999 327.353 243.019 327.109 243.019 326.866C242.999 326.805 243.059 326.764 243.1 326.744H245.903C245.984 326.744 246.025 326.784 246.045 326.825L250.006 337.977C250.047 338.098 250.006 338.159 249.905 338.159H247.63C247.549 338.18 247.488 338.119 247.447 338.038L246.574 335.498ZM243.161 333.284H245.903C245.842 333.061 245.761 332.777 245.659 332.513C245.558 332.228 245.456 331.903 245.375 331.578C245.274 331.233 245.172 330.908 245.07 330.583C244.969 330.238 244.867 329.933 244.786 329.628C244.705 329.323 244.624 329.039 244.542 328.775H244.522C244.42 329.242 244.299 329.709 244.156 330.177C243.994 330.705 243.831 331.233 243.649 331.781C243.486 332.33 243.324 332.838 243.161 333.284ZM252.424 328.673C252.058 328.694 251.713 328.552 251.469 328.288C251.225 328.023 251.083 327.658 251.103 327.292C251.083 326.927 251.225 326.581 251.489 326.338C251.753 326.094 252.099 325.952 252.444 325.952C252.87 325.952 253.195 326.073 253.439 326.338C253.683 326.602 253.805 326.947 253.805 327.292C253.825 327.658 253.683 328.023 253.419 328.288C253.155 328.552 252.789 328.694 252.424 328.673ZM251.205 338.078V329.73C251.205 329.628 251.245 329.588 251.347 329.588H253.5C253.602 329.588 253.642 329.648 253.642 329.73V338.078C253.642 338.2 253.602 338.261 253.5 338.261H251.367C251.266 338.241 251.205 338.18 251.205 338.078Z" fill="#FF9A00"/>
</g>
<g clip-path="url(#clip2_4_218)">
<path d="M363.969 222H348.031C344.148 222 341 225.148 341 229.031V244.969C341 248.852 344.148 252 348.031 252H363.969C367.852 252 371 248.852 371 244.969V229.031C371 225.148 367.852 222 363.969 222Z" fill="#E14E1D"/>
<path d="M346.625 226.453L347.634 237.773H360.608L360.173 242.628L355.995 243.757L351.826 242.629L351.547 239.512H347.79L348.327 245.521L355.994 247.651L363.671 245.521L364.701 234.03H351.058L350.715 230.197H365.04L365.375 226.453H346.625Z" fill="white"/>
<path d="M356 226.453H346.625L347.634 237.773H356V234.03H351.058L350.715 230.197H356V226.453ZM356 243.756L355.995 243.757L351.826 242.629L351.547 239.512H347.79L348.327 245.521L355.994 247.651L356 247.649L356 243.756Z" fill="#EBEBEB"/>
</g>
<g clip-path="url(#clip3_4_218)">
<path d="M19.9062 101H6.09375C2.72826 101 0 103.728 0 107.094V120.906C0 124.272 2.72826 127 6.09375 127H19.9062C23.2717 127 26 124.272 26 120.906V107.094C26 103.728 23.2717 101 19.9062 101Z" fill="#0277BD"/>
<path d="M5.45929 111.425L5.74996 114.67H13.0098V111.425H5.45929ZM13.0097 104.859H4.875L5.16994 108.103H13.0097V104.859ZM13.0097 123.226V119.851L12.9954 119.855L9.38245 118.879L9.15149 116.292H5.89489L6.34938 121.385L12.9947 123.23L13.0097 123.226Z" fill="#EBEBEB"/>
<path d="M16.9932 114.67L16.6166 118.877L12.9985 119.854V123.229L19.6491 121.385L19.6978 120.837L20.4602 112.297L20.5393 111.425L21.125 104.859H12.9985V108.103H17.5697L17.2746 111.425H12.9985V114.67H16.9932Z" fill="white"/>
</g>
<g clip-path="url(#clip4_4_218)">
<path d="M266.604 38.325H283.396C285.942 38.325 288 40.3833 288 42.9292V59.0708C288 61.6167 285.942 63.675 283.396 63.675H266.604C264.058 63.675 262 61.6167 262 59.0708V42.9292C262 40.3833 264.058 38.325 266.604 38.325Z" fill="#001E36"/>
<path d="M271.317 44.7708C270.992 44.7708 270.667 44.7708 270.331 44.7817C269.995 44.7925 269.681 44.7925 269.388 44.8035C269.096 44.8142 268.825 44.8142 268.565 44.825C268.316 44.8358 268.143 44.8358 267.958 44.8358C267.883 44.8358 267.85 44.879 267.85 44.955V56.1025C267.85 56.2 267.893 56.2435 267.98 56.2435H270.082C270.158 56.2325 270.212 56.1675 270.201 56.0917V52.6142C270.407 52.6142 270.558 52.6142 270.667 52.625C270.775 52.6358 270.948 52.6358 271.208 52.6358C272.097 52.6358 272.909 52.5383 273.646 52.2675C274.35 52.0075 274.957 51.5525 275.39 50.9458C275.823 50.3391 276.04 49.5699 276.04 48.6383C276.04 48.1508 275.954 47.685 275.791 47.23C275.619 46.7664 275.349 46.3453 275 45.995C274.588 45.5948 274.092 45.2913 273.548 45.1065C272.942 44.879 272.205 44.7708 271.317 44.7708ZM271.559 46.9046C271.944 46.9119 272.32 46.9793 272.671 47.1215C272.985 47.2408 273.245 47.4575 273.429 47.739C273.602 48.0304 273.689 48.3649 273.679 48.7035C273.679 49.18 273.57 49.5485 273.343 49.8192C273.104 50.09 272.801 50.296 272.454 50.3935C272.053 50.5235 271.631 50.5883 271.208 50.5883H270.634C270.504 50.5883 270.364 50.5775 270.212 50.5667V46.9267C270.288 46.9158 270.439 46.905 270.656 46.916C270.862 46.905 271.111 46.905 271.393 46.905C271.448 46.9036 271.503 46.9035 271.559 46.9046ZM280.644 47.4577C279.875 47.4577 279.236 47.5767 278.727 47.8367C278.261 48.0535 277.86 48.4 277.589 48.8333C277.351 49.2342 277.221 49.6783 277.221 50.1442C277.212 50.5275 277.297 50.9071 277.47 51.2492C277.673 51.6136 277.954 51.9281 278.294 52.17C278.77 52.496 279.287 52.7582 279.832 52.95C280.363 53.1558 280.72 53.3183 280.894 53.459C281.067 53.6 281.154 53.7408 281.154 53.8925C281.154 54.0875 281.034 54.2717 280.861 54.3475C280.666 54.445 280.374 54.4992 279.962 54.4992C279.529 54.4992 279.095 54.445 278.683 54.3367C278.211 54.2312 277.757 54.0521 277.34 53.806C277.308 53.7842 277.275 53.7735 277.243 53.7952C277.21 53.8167 277.199 53.86 277.199 53.8925V55.7775C277.189 55.8642 277.243 55.94 277.319 55.9833C277.67 56.1474 278.041 56.264 278.424 56.33C278.911 56.4275 279.398 56.4708 279.897 56.4708C280.677 56.4708 281.327 56.3517 281.858 56.1242C282.345 55.9292 282.768 55.5935 283.071 55.16C283.355 54.7339 283.502 54.2313 283.493 53.7192C283.504 53.3324 283.418 52.949 283.244 52.6035C283.038 52.235 282.746 51.9317 282.388 51.7042C281.865 51.3758 281.305 51.1103 280.72 50.9133C280.459 50.8051 280.202 50.6858 279.951 50.5558C279.81 50.48 279.68 50.3825 279.583 50.2633C279.518 50.1765 279.474 50.0792 279.474 49.9817C279.474 49.8842 279.507 49.776 279.561 49.6892C279.637 49.581 279.756 49.505 279.897 49.4725C280.103 49.4185 280.33 49.3858 280.547 49.3965C280.958 49.3965 281.359 49.4508 281.76 49.5375C282.129 49.6133 282.475 49.7325 282.8 49.906C282.843 49.9275 282.898 49.9275 282.995 49.906C283.012 49.8934 283.026 49.8771 283.035 49.8582C283.045 49.8394 283.049 49.8186 283.049 49.7975V48.0317C283.049 47.9883 283.038 47.945 283.028 47.9017C283.006 47.8585 282.963 47.815 282.919 47.8042C282.621 47.6821 282.307 47.5984 281.988 47.555C281.543 47.4902 281.094 47.4579 280.644 47.4577Z" fill="#31A8FF"/>
</g>
<path d="M55.25 257.75H61V269.25H55.25C53.725 269.25 52.2625 268.644 51.1841 267.566C50.1058 266.488 49.5 265.025 49.5 263.5C49.5 261.975 50.1058 260.512 51.1841 259.434C52.2625 258.356 53.725 257.75 55.25 257.75Z" fill="#F4511E"/>
<path d="M66.75 269.25H61V257.75H66.75C68.275 257.75 69.7375 258.356 70.8159 259.434C71.8942 260.512 72.5 261.975 72.5 263.5C72.5 265.025 71.8942 266.488 70.8159 267.566C69.7375 268.644 68.275 269.25 66.75 269.25Z" fill="#FF8A65"/>
<path d="M61 275C61 278.176 63.5744 280.75 66.75 280.75C69.9256 280.75 72.5 278.176 72.5 275C72.5 271.824 69.9256 269.25 66.75 269.25C63.5744 269.25 61 271.824 61 275Z" fill="#29B6F6"/>
<path d="M55.25 269.25H61V280.75H55.25C53.725 280.75 52.2625 280.144 51.1841 279.066C50.1058 277.988 49.5 276.525 49.5 275C49.5 273.475 50.1058 272.012 51.1841 270.934C52.2625 269.856 53.725 269.25 55.25 269.25Z" fill="#7C4DFF"/>
<path d="M55.25 280.75H61V286.5C61 288.025 60.3942 289.488 59.3159 290.566C58.2375 291.644 56.775 292.25 55.25 292.25C53.725 292.25 52.2625 291.644 51.1841 290.566C50.1058 289.488 49.5 288.025 49.5 286.5C49.5 284.975 50.1058 283.512 51.1841 282.434C52.2625 281.356 53.725 280.75 55.25 280.75Z" fill="#00E676"/>
<defs>
<clipPath id="clip0_4_218">
<rect width="30" height="30" fill="white" transform="translate(109)"/>
</clipPath>
<clipPath id="clip1_4_218">
<rect width="26" height="26" fill="white" transform="translate(234 320)"/>
</clipPath>
<clipPath id="clip2_4_218">
<rect width="30" height="30" fill="white" transform="translate(341 222)"/>
</clipPath>
<clipPath id="clip3_4_218">
<rect width="26" height="26" fill="white" transform="translate(0 101)"/>
</clipPath>
<clipPath id="clip4_4_218">
<rect width="26" height="26" fill="white" transform="translate(262 38)"/>
</clipPath>
</defs>
</svg>
